<svg width="24" height="24" viewBox="0 0 24 24" fill="none" xmlns="http://www.w3.org/2000/svg">
<g clip-path="url(#clip0_5_238)">
<path fill-rule="evenodd" clip-rule="evenodd" d="M12.0024 4.12097L10.9269 3.01547C8.40238 0.420474 3.77338 1.31597 2.10238 4.57847C1.31788 6.11297 1.14088 8.32847 2.57338 11.156C3.95338 13.8785 6.82438 17.1395 12.0024 20.6915C17.1804 17.1395 20.0499 13.8785 21.4314 11.156C22.8639 8.32697 22.6884 6.11297 21.9024 4.57847C20.2314 1.31597 15.6024 0.418974 13.0779 3.01397L12.0024 4.12097ZM12.0024 22.499C-10.9971 7.30097 4.92088 -4.56103 11.7384 1.71347C11.8284 1.79597 11.9169 1.88147 12.0024 1.96997C12.087 1.88155 12.1751 1.79649 12.2664 1.71497C19.0824 -4.56403 35.0019 7.29947 12.0024 22.499Z" fill="#B3B3B3" />
</g>
<defs>
<clipPath id="clip0_5_238">
<rect width="24" height="24" fill="white"/>
</clipPath>
</defs>
</svg>
