<svg width="16" height="16" viewBox="0 0 16 16" fill="none" xmlns="http://www.w3.org/2000/svg">
<path d="M11 4C11 4.79565 10.6839 5.55871 10.1213 6.12132C9.55871 6.68393 8.79565 7 8 7C7.20435 7 6.44129 6.68393 5.87868 6.12132C5.31607 5.55871 5 4.79565 5 4C5 3.20435 5.31607 2.44129 5.87868 1.87868C6.44129 1.31607 7.20435 1 8 1C8.79565 1 9.55871 1.31607 10.1213 1.87868C10.6839 2.44129 11 3.20435 11 4Z" fill="#2A81DD"/>
<path d="M7.5 4H8.5V13C8.5 13.1326 8.44732 13.2598 8.35355 13.3536C8.25979 13.4473 8.13261 13.5 8 13.5C7.86739 13.5 7.74021 13.4473 7.64645 13.3536C7.55268 13.2598 7.5 13.1326 7.5 13V4Z" fill="#2A81DD"/>
<path fill-rule="evenodd" clip-rule="evenodd" d="M6.489 12.095C6.51691 12.2245 6.49225 12.3599 6.42044 12.4713C6.34862 12.5826 6.23553 12.661 6.106 12.689C5.541 12.812 5.103 12.981 4.82 13.161C4.518 13.353 4.5 13.482 4.5 13.5C4.5 13.513 4.505 13.585 4.646 13.71C4.786 13.834 5.018 13.97 5.347 14.092C6.002 14.338 6.94 14.5 8 14.5C9.06 14.5 9.998 14.338 10.653 14.092C10.982 13.969 11.213 13.834 11.354 13.71C11.494 13.585 11.5 13.513 11.5 13.5C11.5 13.482 11.482 13.353 11.18 13.161C10.897 12.981 10.459 12.811 9.894 12.689C9.82858 12.6764 9.76635 12.6508 9.71095 12.6138C9.65556 12.5767 9.60812 12.529 9.57143 12.4734C9.53474 12.4178 9.50953 12.3554 9.49729 12.2899C9.48505 12.2244 9.48603 12.1571 9.50015 12.092C9.51428 12.0269 9.54128 11.9653 9.57957 11.9108C9.61785 11.8562 9.66665 11.8099 9.72309 11.7745C9.77953 11.7391 9.84248 11.7153 9.90823 11.7046C9.97399 11.6939 10.0412 11.6964 10.106 11.712C10.736 11.849 11.299 12.052 11.716 12.318C12.116 12.571 12.5 12.963 12.5 13.5C12.5 13.902 12.281 14.224 12.017 14.458C11.753 14.693 11.399 14.881 11.004 15.028C10.211 15.326 9.149 15.5 8 15.5C6.851 15.5 5.79 15.326 4.996 15.029C4.601 14.881 4.247 14.693 3.983 14.458C3.719 14.224 3.5 13.902 3.5 13.5C3.5 12.963 3.884 12.571 4.283 12.318C4.701 12.052 5.263 11.848 5.894 11.712C5.95822 11.698 6.02456 11.6969 6.08923 11.7085C6.15391 11.7202 6.21564 11.7446 6.2709 11.7801C6.32616 11.8157 6.37387 11.8618 6.41129 11.9159C6.44872 11.9699 6.47512 12.0308 6.489 12.095Z" fill="#2A81DD"/>
</svg>
