<svg width="24" height="24" viewBox="0 0 24 24" fill="none" xmlns="http://www.w3.org/2000/svg">
<g clip-path="url(#clip0_5_231)">
<path fill-rule="evenodd" clip-rule="evenodd" d="M21 4.5H3C2.60218 4.5 2.22064 4.65804 1.93934 4.93934C1.65804 5.22064 1.5 5.60218 1.5 6V18C1.5 18.3978 1.65804 18.7794 1.93934 19.0607C2.22064 19.342 2.60218 19.5 3 19.5H21C21.3978 19.5 21.7794 19.342 22.0607 19.0607C22.342 18.7794 22.5 18.3978 22.5 18V6C22.5 5.60218 22.342 5.22064 22.0607 4.93934C21.7794 4.65804 21.3978 4.5 21 4.5ZM3 3C2.20435 3 1.44129 3.31607 0.87868 3.87868C0.316071 4.44129 0 5.20435 0 6L0 18C0 18.7956 0.316071 19.5587 0.87868 20.1213C1.44129 20.6839 2.20435 21 3 21H21C21.7956 21 22.5587 20.6839 23.1213 20.1213C23.6839 19.5587 24 18.7956 24 18V6C24 5.20435 23.6839 4.44129 23.1213 3.87868C22.5587 3.31607 21.7956 3 21 3H3Z" fill="#B3B3B3"/>
<path fill-rule="evenodd" clip-rule="evenodd" d="M0.106502 6.36444C0.157114 6.27992 0.223881 6.2062 0.30299 6.14749C0.382099 6.08878 0.471999 6.04623 0.567555 6.02227C0.663111 5.99832 0.762452 5.99342 0.859901 6.00786C0.957351 6.0223 1.051 6.0558 1.1355 6.10644L12 12.6254L22.8645 6.10644C22.949 6.05582 23.0427 6.02233 23.1401 6.0079C23.2375 5.99347 23.3369 5.99837 23.4324 6.02233C23.528 6.04629 23.6179 6.08883 23.697 6.14753C23.7761 6.20623 23.8429 6.27994 23.8935 6.36444C23.9441 6.44895 23.9776 6.5426 23.992 6.64004C24.0065 6.73749 24.0016 6.83682 23.9776 6.93238C23.9537 7.02793 23.9111 7.11782 23.8524 7.19693C23.7937 7.27604 23.72 7.34282 23.6355 7.39344L12 14.3744L0.364502 7.39494C0.279983 7.34433 0.206263 7.27756 0.147553 7.19845C0.0888433 7.11935 0.0462937 7.02944 0.022335 6.93389C-0.00162376 6.83833 -0.00652222 6.73899 0.00791939 6.64154C0.022361 6.54409 0.0558597 6.45044 0.106502 6.36594V6.36444Z" fill="#B3B3B3"/>
<path d="M10.128 13.398L10.776 13.02L10.02 11.724L9.37201 12.102L10.128 13.398ZM1.12801 18.648L10.128 13.398L9.37201 12.102L0.372009 17.352L1.12801 18.648ZM13.872 13.398L13.224 13.02L13.98 11.724L14.628 12.102L13.872 13.398ZM22.872 18.648L13.872 13.398L14.628 12.102L23.628 17.352L22.872 18.648Z" fill="#B3B3B3"/>
</g>
<defs>
<clipPath id="clip0_5_231">
<rect width="24" height="24" fill="white"/>
</clipPath>
</defs>
</svg>
