<svg width="29" height="28" viewBox="0 0 29 28" fill="none" xmlns="http://www.w3.org/2000/svg">
<path fill-rule="evenodd" clip-rule="evenodd" d="M3.03685 13.4989C3.03685 7.83902 8.32586 3.5 14.5184 3.5C20.711 3.5 26 7.83902 26 13.4989C26 19.1589 20.711 23.4979 14.5184 23.4979C13.1453 23.4979 11.8254 23.288 10.6004 22.9013C9.15559 24.2498 7.05628 24.898 4.48826 24.9989C3.44216 25.04 2.6871 23.9519 3.12513 22.978C3.74653 21.5866 4.54943 19.9915 4.64464 18.6002C3.62781 17.1195 3.03685 15.3721 3.03685 13.4989ZM14.5184 5.5C9.13336 5.5 5.03685 9.21891 5.03685 13.4989C5.03685 15.0359 5.55148 16.4778 6.45871 17.6996C6.58672 17.872 6.65585 18.081 6.65585 18.2957C6.65585 19.9295 6.00458 21.471 5.34142 22.9339C7.39749 22.7155 8.74633 22.0571 9.55968 21.1C9.83285 20.7786 10.2784 20.6631 10.6733 20.8114C11.8455 21.2516 13.1458 21.4979 14.5184 21.4979C19.9035 21.4979 24 17.779 24 13.4989C24 9.21891 19.9035 5.5 14.5184 5.5Z" fill="#2975cc"/>
</svg>
