<svg width="29" height="28" viewBox="0 0 29 28" fill="none" xmlns="http://www.w3.org/2000/svg">
<path d="M18.0903 3C20.2733 3 21.323 3.20271 22.4137 3.78602C23.4028 4.31499 24.185 5.0972 24.714 6.08629C25.2973 7.17697 25.5 8.22671 25.5 10.4097V17.5903C25.5 19.7733 25.2973 20.823 24.714 21.9137C24.185 22.9028 23.4028 23.685 22.4137 24.214C21.323 24.7973 20.2733 25 18.0903 25H10.9097C8.72671 25 7.67697 24.7973 6.58629 24.214C5.5972 23.685 4.81499 22.9028 4.28602 21.9137C3.70271 20.823 3.5 19.7733 3.5 17.5903V10.4097C3.5 8.22671 3.70271 7.17697 4.28602 6.08629C4.81499 5.0972 5.5972 4.31499 6.58629 3.78602C7.67697 3.20271 8.72671 3 10.9097 3H18.0903ZM5.49899 11L5.5 17.5903C5.5 19.4714 5.64248 20.2092 6.04964 20.9705C6.39221 21.6111 6.88894 22.1078 7.52948 22.4504C8.29082 22.8575 9.02864 23 10.9097 23H18.0903C19.9714 23 20.7092 22.8575 21.4705 22.4504C22.1111 22.1078 22.6078 21.6111 22.9504 20.9705C23.3575 20.2092 23.5 19.4714 23.5 17.5903L23.499 11H5.49899ZM18.0903 5H10.9097C9.02864 5 8.29082 5.14248 7.52948 5.54964C6.88894 5.89221 6.39221 6.38894 6.04964 7.02948C5.76405 7.5635 5.60868 8.08594 5.54136 8.99945H23.4586C23.3913 8.08594 23.2359 7.5635 22.9504 7.02948C22.6078 6.38894 22.1111 5.89221 21.4705 5.54964C20.7092 5.14248 19.9714 5 18.0903 5Z" fill="#99a2ad"/>
</svg>
