<svg width="29" height="28" viewBox="0 0 29 28" fill="none" xmlns="http://www.w3.org/2000/svg">
<path d="M9.86563 15C10.931 15 11.4892 15.1078 12.0705 15.4187C12.6115 15.708 13.042 16.1385 13.3313 16.6794C13.6422 17.2608 13.75 17.819 13.75 18.8844V21.1156C13.75 22.181 13.6422 22.7392 13.3313 23.3205C13.042 23.8615 12.6115 24.292 12.0705 24.5813C11.4892 24.8922 10.931 25 9.86563 25H7.63437C6.56899 25 6.01083 24.8922 5.42945 24.5813C4.88851 24.292 4.45801 23.8615 4.16871 23.3205C3.85779 22.7392 3.75 22.181 3.75 21.1156V18.8844C3.75 17.819 3.85779 17.2608 4.16871 16.6794C4.45801 16.1385 4.88851 15.708 5.42945 15.4187C6.01083 15.1078 6.56899 15 7.63437 15H9.86563ZM21.8656 15C22.931 15 23.4892 15.1078 24.0706 15.4187C24.6115 15.708 25.042 16.1385 25.3313 16.6794C25.6422 17.2608 25.75 17.819 25.75 18.8844V21.1156C25.75 22.181 25.6422 22.7392 25.3313 23.3205C25.042 23.8615 24.6115 24.292 24.0706 24.5813C23.4892 24.8922 22.931 25 21.8656 25H19.6344C18.569 25 18.0108 24.8922 17.4294 24.5813C16.8885 24.292 16.458 23.8615 16.1687 23.3205C15.8578 22.7392 15.75 22.181 15.75 21.1156V18.8844C15.75 17.819 15.8578 17.2608 16.1687 16.6794C16.458 16.1385 16.8885 15.708 17.4294 15.4187C18.0108 15.1078 18.569 15 19.6344 15H21.8656ZM9.86563 17H7.63437C6.87092 17 6.62468 17.0475 6.37265 17.1823C6.18025 17.2852 6.03523 17.4302 5.93234 17.6226C5.79755 17.8747 5.75 18.1209 5.75 18.8844V21.1156C5.75 21.8791 5.79755 22.1253 5.93234 22.3773C6.03523 22.5697 6.18025 22.7148 6.37265 22.8177C6.62468 22.9524 6.87092 23 7.63437 23H9.86563C10.6291 23 10.8753 22.9524 11.1274 22.8177C11.3198 22.7148 11.4648 22.5697 11.5677 22.3773C11.7024 22.1253 11.75 21.8791 11.75 21.1156V18.8844C11.75 18.1209 11.7024 17.8747 11.5677 17.6226C11.4648 17.4302 11.3198 17.2852 11.1274 17.1823C10.8753 17.0475 10.6291 17 9.86563 17ZM21.8656 17H19.6344C18.8709 17 18.6247 17.0475 18.3726 17.1823C18.1803 17.2852 18.0352 17.4302 17.9323 17.6226C17.7976 17.8747 17.75 18.1209 17.75 18.8844V21.1156C17.75 21.8791 17.7976 22.1253 17.9323 22.3773C18.0352 22.5697 18.1803 22.7148 18.3726 22.8177C18.6247 22.9524 18.8709 23 19.6344 23H21.8656C22.6291 23 22.8753 22.9524 23.1274 22.8177C23.3197 22.7148 23.4648 22.5697 23.5677 22.3773C23.7024 22.1253 23.75 21.8791 23.75 21.1156V18.8844C23.75 18.1209 23.7024 17.8747 23.5677 17.6226C23.4648 17.4302 23.3197 17.2852 23.1274 17.1823C22.8753 17.0475 22.6291 17 21.8656 17ZM21.6415 2.41255C22.2724 2.60379 22.7433 2.92225 23.4967 3.67559L25.0744 5.25333C25.8277 6.00667 26.1462 6.47756 26.3374 7.10852C26.5154 7.69558 26.5154 8.30441 26.3374 8.89147C26.1462 9.52243 25.8277 9.99332 25.0744 10.7467L23.4967 12.3244C22.7433 13.0777 22.2724 13.3962 21.6415 13.5874C21.0544 13.7654 20.4456 13.7654 19.8585 13.5874C19.2276 13.3962 18.7567 13.0777 18.0033 12.3244L16.4256 10.7467C15.6723 9.99332 15.3538 9.52243 15.1626 8.89147C14.9846 8.30441 14.9846 7.69558 15.1626 7.10852C15.3538 6.47756 15.6723 6.00667 16.4256 5.25333L18.0033 3.67559C18.7567 2.92225 19.2276 2.60379 19.8585 2.41255C20.4456 2.23461 21.0544 2.23461 21.6415 2.41255ZM9.86563 2.99999C10.931 2.99999 11.4892 3.10778 12.0705 3.41871C12.6115 3.708 13.042 4.13851 13.3313 4.67944C13.6422 5.26083 13.75 5.81898 13.75 6.88437V9.11562C13.75 10.181 13.6422 10.7392 13.3313 11.3205C13.042 11.8615 12.6115 12.292 12.0705 12.5813C11.4892 12.8922 10.931 13 9.86563 13H7.63437C6.56899 13 6.01083 12.8922 5.42945 12.5813C4.88851 12.292 4.45801 11.8615 4.16871 11.3205C3.85779 10.7392 3.75 10.181 3.75 9.11562V6.88437C3.75 5.81898 3.85779 5.26083 4.16871 4.67944C4.45801 4.13851 4.88851 3.708 5.42945 3.41871C6.01083 3.10778 6.56899 2.99999 7.63437 2.99999H9.86563ZM20.4387 4.32656C20.1651 4.40947 19.9574 4.54996 19.4175 5.08981L17.8398 6.66754C17.3 7.20739 17.1595 7.41513 17.0766 7.68865C17.0133 7.89745 17.0133 8.10254 17.0766 8.31134C17.1595 8.58486 17.3 8.7926 17.8398 9.33245L19.4175 10.9102C19.9574 11.45 20.1651 11.5905 20.4387 11.6734C20.6475 11.7367 20.8525 11.7367 21.0613 11.6734C21.3349 11.5905 21.5426 11.45 22.0825 10.9102L23.6602 9.33245C24.2 8.7926 24.3405 8.58486 24.4234 8.31134C24.4867 8.10254 24.4867 7.89745 24.4234 7.68865C24.3405 7.41513 24.2 7.20739 23.6602 6.66754L22.0825 5.08981C21.5426 4.54996 21.3349 4.40947 21.0613 4.32656C20.8525 4.26328 20.6475 4.26328 20.4387 4.32656ZM9.86563 4.99999H7.63437C6.87092 4.99999 6.62468 5.04755 6.37265 5.18233C6.18025 5.28523 6.03523 5.43024 5.93234 5.62264C5.79755 5.87467 5.75 6.12091 5.75 6.88437V9.11562C5.75 9.87908 5.79755 10.1253 5.93234 10.3773C6.03523 10.5697 6.18025 10.7148 6.37265 10.8177C6.62468 10.9524 6.87092 11 7.63437 11H9.86563C10.6291 11 10.8753 10.9524 11.1274 10.8177C11.3198 10.7148 11.4648 10.5697 11.5677 10.3773C11.7024 10.1253 11.75 9.87908 11.75 9.11562V6.88437C11.75 6.12091 11.7024 5.87467 11.5677 5.62264C11.4648 5.43024 11.3198 5.28523 11.1274 5.18233C10.8753 5.04755 10.6291 4.99999 9.86563 4.99999Z" fill="#2975cc"/>
</svg>
